Coordinates
version=1
nRows=24
nColumns=24
inDegrees=yes

Units are S.I. units (second, meters, Newtons, ...)
Angles are in degrees.

endheader
time	pelvis_tilt	pelvis_list	pelvis_rotation	pelvis_tx	pelvis_ty	pelvis_tz	hip_flexion_r	hip_adduction_r	hip_rotation_r	knee_angle_r	ankle_angle_r	subtalar_angle_r	mtp_angle_r	hip_flexion_l	hip_adduction_l	hip_rotation_l	knee_angle_l	ankle_angle_l	subtalar_angle_l	mtp_angle_l	lumbar_extension	lumbar_bending	lumbar_rotation
      0.94666667	     -3.22779023	     -3.73808120	      2.56488111	     -0.35079604	      0.98839843	      0.33724575	     16.13907602	      8.61248981	     -4.83803802	    -20.96237052	      7.90760990	     -7.35237172	      2.42037566	     19.32226001	     -4.89884830	      1.32565596	    -73.04270859	     -2.71894345	     -9.54994096	      1.21307531	      1.83567976	      7.29371753	      0.49249035
      0.95083333	     -3.17734896	     -3.68433329	      2.38788694	     -0.34606227	      0.98920820	      0.33755734	     15.57051564	      8.61090877	     -4.74149607	    -20.58576672	      7.99462930	     -7.03513463	      2.44398416	     19.92419138	     -4.83380614	      1.26817388	    -73.08535810	     -2.19167343	     -9.62738034	      1.05093981	      1.72878323	      7.26010571	      0.80484781
      0.95500000	     -3.15711532	     -3.60569101	      2.18923031	     -0.34138569	      0.98994027	      0.33787656	     15.06075704	      8.58188791	     -4.62355530	    -20.26457146	      8.08269327	     -6.82043350	      2.46156304	     20.54678209	     -4.74138144	      1.18393052	    -73.08154868	     -1.67204597	     -9.81135857	      0.96656675	      1.63593269	      7.19590920	      0.95259068
      0.95916667	     -3.10123302	     -3.53206650	      2.00147332	     -0.33666508	      0.99070912	      0.33817533	     14.49181254	      8.55024261	     -4.53533582	    -19.89846834	      8.17121931	     -6.48439420	      2.49975804	     21.11212862	     -4.65894031	      1.11270564	    -73.01652657	     -1.17318584	     -9.84970013	      0.79600920	      1.52484668	      7.13641007	      1.27835116
      0.96333333	     -3.07694322	     -3.46861241	      1.80320556	     -0.33198285	      0.99138604	      0.33847413	     13.96718663	      8.52969358	     -4.42194002	    -19.54749747	      8.25039969	     -6.20633546	      2.54306672	     21.70659751	     -4.58780890	      1.03627224	    -72.91647950	     -0.68598868	     -9.92278976	      0.63284992	      1.43908919	      7.09557375	      1.51176575
      0.96750000	     -3.03665071	     -3.38211725	      1.59828797	     -0.32729999	      0.99207342	      0.33876359	     13.42833031	      8.47918948	     -4.31381589	    -19.20555918	      8.33075387	     -5.91814059	      2.59379892	     22.26168131	     -4.49354218	      0.94888816	    -72.75426859	     -0.21639404	     -9.97674981	      0.47399024	      1.33374371	      7.02746230	      1.74732218
      0.97166667	     -3.03111224	     -3.31535065	      1.39325031	     -0.32264123	      0.99265583	      0.33905119	     12.93176591	      8.44633667	     -4.20938638	    -18.86439595	      8.40298481	     -5.64045586	      2.65264663	     22.85329603	     -4.42231404	      0.87077364	    -72.56261166	      0.23644275	     -9.99650954	      0.31871799	      1.27083512	      6.97692822	      1.97976099
      0.97583333	     -3.02642084	     -3.22979716	      1.17288316	     -0.31800462	      0.99321748	      0.33934425	     12.44403110	      8.39539959	     -4.06968901	    -18.54013614	      8.47418792	     -5.41451423	      2.68749177	     23.42544994	     -4.33435359	      0.77427033	    -72.31381464	      0.67396248	    -10.05474854	      0.24910797	      1.19360142	      6.90590622	      2.11631759
      0.98000000	     -2.98426149	     -3.16727899	      0.97180606	     -0.31334785	      0.99380165	      0.33961256	     11.89921384	      8.36172660	     -3.96110882	    -18.17468146	      8.53127926	     -5.10531391	      2.73968877	     23.94876600	     -4.27121234	      0.70494119	    -72.02487252	      1.08978863	     -9.99192126	      0.15610143	      1.08140918	      6.86115176	      2.37223986
      0.98416667	     -2.98590398	     -3.09517854	      0.75959531	     -0.30870074	      0.99429359	      0.33987127	     11.41302139	      8.31311137	     -3.84952252	    -17.83199300	      8.59223312	     -4.81847821	      2.80056076	     24.50281846	     -4.19637413	      0.62937579	    -71.68657894	      1.48093093	     -9.92603092	      0.06030605	      1.03136297	      6.81687150	      2.61922855
      0.98833333	     -2.94636454	     -3.00819031	      0.55548142	     -0.30403858	      0.99482104	      0.34008572	     10.88894374	      8.23374534	     -3.79830885	    -17.50358543	      8.66047423	     -4.47662670	      2.95373724	     24.99112240	     -4.10170036	      0.55270037	    -71.29198675	      1.86580690	     -9.89502415	     -0.16846789	      0.93844585	      6.73677099	      2.93428185
      0.99250000	     -2.95156430	     -2.95771536	      0.34268532	     -0.29941215	      0.99521674	      0.34036737	     10.40289554	      8.21074111	     -3.65699463	    -17.14480528	      8.70652810	     -4.22713556	      3.03079188	     25.53139048	     -4.06441348	      0.48093925	    -70.88137059	      2.21925692	     -9.72958111	     -0.25706626	      0.89092154	      6.70772175	      3.09149825
      0.99666667	     -2.93429351	     -2.88357205	      0.11339987	     -0.29478978	      0.99565401	      0.34062781	      9.89953268	      8.15698556	     -3.50405549	    -16.80204019	      8.75066705	     -3.99465542	      3.08081392	     26.01616241	     -3.99943449	      0.39177036	    -70.40227679	      2.56092535	     -9.64292994	     -0.30275082	      0.81454870	      6.65905516	      3.23779084
      1.00083333	     -2.93661473	     -2.82095392	     -0.09431727	     -0.29017074	      0.99599930	      0.34087261	      9.41996649	      8.10881990	     -3.38916283	    -16.45818148	      8.78993804	     -3.72168124	      3.14142701	     26.51984279	     -3.94449203	      0.32752785	    -69.89634929	      2.89461575	     -9.46484537	     -0.34942829	      0.76181848	      6.60177042	      3.45403968
      1.00500000	     -2.90914828	     -2.76324133	     -0.30172990	     -0.28555403	      0.99636246	      0.34109756	      8.90605433	      8.06102075	     -3.27595214	    -16.10828798	      8.83271434	     -3.44831377	      3.20698050	     26.97425776	     -3.89350637	      0.26980979	    -69.34540737	      3.20816671	     -9.27570855	     -0.39281599	      0.67353450	      6.56251499	      3.67233590
      1.00916667	     -2.90858007	     -2.70625856	     -0.50300299	     -0.28094265	      0.99664092	      0.34131353	      8.42702279	      8.01166001	     -3.16464004	    -15.76860209	      8.87326701	     -3.18946634	      3.27598975	     27.44624338	     -3.84062474	      0.22291329	    -68.75607425	      3.50479556	     -9.06605582	     -0.43142961	      0.62126657	      6.52291838	      3.88083533
      1.01333333	     -2.90372493	     -2.65374813	     -0.70441453	     -0.27634031	      0.99689951	      0.34152685	      7.94218575	      7.96497452	     -3.04894117	    -15.42192029	      8.90856417	     -2.93086568	      3.34787978	     27.89870347	     -3.79352002	      0.18097233	    -68.12737696	      3.78735038	     -8.83960342	     -0.46526419	      0.55947395	      6.48356863	      4.08389601
      1.01750000	     -2.86830510	     -2.61237590	     -0.87943749	     -0.27171883	      0.99716288	      0.34170968	      7.41846519	      7.92278273	     -2.97715687	    -15.06155625	      8.94903295	     -2.66602575	      3.45332258	     28.30582303	     -3.75090902	      0.16348419	    -67.46017458	      4.06294330	     -8.58316139	     -0.51074753	      0.47005898	      6.45033059	      4.33019097
      1.02166667	     -2.87076152	     -2.56165115	     -1.08574932	     -0.26714070	      0.99734068	      0.34192009	      6.95138722	      7.87738921	     -2.82253317	    -14.73306808	      8.98052547	     -2.44075327	      3.52138104	     28.73514403	     -3.71047426	      0.12058151	    -66.74869698	      4.31133796	     -8.34655544	     -0.53197662	      0.41368171	      6.41575072	      4.46984736
      1.02583333	     -2.85283526	     -2.52498120	     -1.26482144	     -0.26253844	      0.99750118	      0.34210929	      6.45435796	      7.84036897	     -2.71361646	    -14.38542379	      9.01152734	     -2.20848506	      3.59706518	     29.13094234	     -3.67809452	      0.10552405	    -66.00505288	      4.56778212	     -8.05989233	     -0.55054204	      0.33992166	      6.38979980	      4.65574859
      1.03000000	     -2.84989446	     -2.47577887	     -1.44417974	     -0.25794512	      0.99761111	      0.34228039	      5.98371926	      7.78575946	     -2.60531877	    -14.05835242	      9.05069169	     -1.98142905	      3.67263585	     29.52416067	     -3.63033713	      0.08955712	    -65.21434183	      4.79399736	     -7.79380839	     -0.56533356	      0.28351774	      6.34978939	      4.83057036
      1.03416667	     -2.82671887	     -2.44975214	     -1.61236243	     -0.25335191	      0.99770317	      0.34244725	      5.48712617	      7.75423065	     -2.49969809	    -13.72058547	      9.08908658	     -1.75347281	      3.75107732	     29.88488749	     -3.60716085	      0.08761522	    -64.39554038	      5.01793464	     -7.51765745	     -0.57650502	      0.20268380	      6.33384291	      5.00557326
      1.03833333	     -2.79951863	     -2.42619282	     -1.76164346	     -0.24873545	      0.99776168	      0.34259126	      4.98731017	      7.71920115	     -2.43747171	    -13.38490071	      9.13116396	     -1.52447872	      3.86170445	     30.22544543	     -3.58076465	      0.09963889	    -63.53794642	      5.23285658	     -7.24609363	     -0.59004843	      0.13213026	      6.31347280	      5.21061861
      1.04250000	     -2.80714521	     -2.38727861	     -1.92970326	     -0.24416189	      0.99772672	      0.34272169	      4.55044209	      7.66249006	     -2.35955585	    -13.09605339	      9.18174376	     -1.21532810	      4.33544060	     30.58488635	     -3.53911588	      0.10182249	    -62.63624661	      5.39290589	     -7.05019654	     -0.65158013	      0.07719347	      6.28281902	      5.49045001
